<svg width="30" height="30" viewBox="0 0 30 30" fill="none" xmlns="http://www.w3.org/2000/svg">
<g id="Icon/UI">
<path id="Vector" d="M10.6846 7.61719H9.33545C8.26362 7.61719 7.39175 8.48906 7.39175 9.56089C7.39175 9.94954 7.70622 10.264 8.09487 10.264C8.48353 10.264 8.798 9.94954 8.798 9.56089C8.79492 9.26514 9.03662 9.02344 9.33545 9.02344H10.6846C11.0581 9.02344 11.3618 9.32692 11.3618 9.70063C11.3618 9.95881 11.2182 10.1911 10.9875 10.3062L9.76172 10.9175C9.52441 11.0361 9.375 11.2778 9.375 11.5459V12.1875C9.375 12.5762 9.68947 12.8906 10.0781 12.8906C10.4668 12.8906 10.7812 12.5742 10.7812 12.1875V11.981L11.614 11.5642C12.3237 11.2119 12.7676 10.4956 12.7676 9.70019C12.7676 8.55322 11.8315 7.61719 10.6846 7.61719ZM10.0781 13.418C9.59297 13.418 9.19922 13.8114 9.19922 14.2969C9.19922 14.782 9.59275 15.1758 10.0781 15.1758C10.5635 15.1758 10.957 14.7803 10.957 14.2969C10.957 13.7739 10.5615 13.418 10.0781 13.418ZM19.2188 11.4844C19.2188 7.21289 15.1274 3.75 10.0781 3.75C5.02881 3.75 0.9375 7.21289 0.9375 11.4844C0.9375 13.3138 1.69248 14.9917 2.94712 16.314C2.22905 17.6952 1.25654 18.756 1.23369 18.7731C0.937236 19.0874 0.854224 19.5558 1.02623 19.9588C1.1981 20.3657 1.59536 20.625 2.03394 20.625C4.41489 20.625 6.35464 19.7795 7.66333 18.9454C8.46094 19.1177 9.25635 19.2188 10.0781 19.2188C15.1274 19.2188 19.2188 15.7559 19.2188 11.4844ZM10.0781 17.1094C9.45586 17.1094 8.81382 17.0352 8.17046 16.8887L7.32715 16.6963L6.59238 17.1511C5.84531 17.6134 5.07979 17.9593 4.30107 18.1869C4.48494 17.8939 4.66103 17.5906 4.81831 17.2882L5.51177 15.9549L4.47817 14.8638C3.82515 14.1782 3.04688 13.0312 3.04688 11.4844C3.04688 8.38271 6.20127 5.85938 10.0781 5.85938C13.955 5.85938 17.1094 8.38271 17.1094 11.4844C17.1094 14.586 13.9541 17.1094 10.0781 17.1094ZM27.2871 23.2485C28.3945 21.939 29.0625 20.2998 29.0625 18.5156C29.0625 14.2441 25.2832 10.7812 20.625 10.7812C20.6112 10.7812 20.5978 10.7831 20.584 10.7831C20.603 11.0142 20.625 11.2471 20.625 11.4844C20.625 15.8183 17.1234 19.4473 12.4468 20.3833C13.3608 23.7495 16.6304 26.25 20.625 26.25C22.1055 26.25 23.4955 25.8981 24.7053 25.2841C25.7754 25.8105 27.1333 26.25 28.7241 26.25C28.8585 26.25 28.9772 26.1742 29.0326 26.0476C29.0866 25.9211 29.0615 25.7775 28.9693 25.6805C28.957 25.6655 28.0034 24.6372 27.2871 23.2485Z" fill="#65696B"/>
</g>
</svg>
