<svg width="24" height="24" viewBox="0 0 24 24" fill="none" xmlns="http://www.w3.org/2000/svg">
<g id="Icon/UI">
<path id="Vector" d="M14.5536 18.6522H10.4002C9.76875 18.6522 9.21429 19.1804 9.21429 19.7821C9.21429 20.4717 9.76875 21 10.4002 21H14.5074C15.2313 21 15.7857 20.4717 15.7857 19.8261C15.7857 19.1804 15.2313 18.6522 14.5536 18.6522ZM22.7679 3H2.18594C1.55446 3 1 3.52826 1 4.12989C1 4.73152 1.55446 5.34783 2.18594 5.34783H22.7679C23.4455 5.34783 24 4.81957 24 4.21793C24 3.6163 23.4455 3 22.7679 3ZM19.4821 10.8261H5.47165C4.84018 10.8261 4.28571 11.3543 4.28571 11.956C4.28571 12.6457 4.84018 13.1739 5.47165 13.1739H19.4359C20.1598 13.1739 20.7143 12.6457 20.7143 12C20.7143 11.3543 20.1598 10.8261 19.4821 10.8261Z" fill="#65696B"/>
</g>
</svg>
